<?xml version="1.0" encoding="UTF-8"?>
<svg id="Lines" xmlns="http://www.w3.org/2000/svg" viewBox="0 0 1920 1080">
  <defs>
    <style>
      .cls-1 {
        fill: #f4e9cd;
      }

      .cls-2 {
        fill: #9dbebb;
      }

      .cls-3 {
        fill: #468189;
      }

      .cls-4 {
        fill: #031926;
      }

      .cls-5 {
        fill: #77aca2;
      }
    </style>
  </defs>
  <path class="cls-1" d="M2005.19,921.69c-3.94-1.04-7.8-2.46-11.36-4.43-2.08-1.17-2.32-1.28-7.94-4.95l-13.25-8.63-26.51-17.27-106.02-69.07-53.01-34.54-13.25-8.63-1.87-1.2-2.19-1.38-4.39-2.74c-2.9-1.86-5.92-3.54-8.9-5.27-11.98-6.85-24.37-12.97-37.09-18.31-25.48-10.59-52.26-18.04-79.56-22.1-13.65-1.99-27.43-3.14-41.22-3.45l-5.17-.09-2.49-.03H564.82s-2.74-.05-2.74-.05l-2.74-.04-2.74-.13c-29.17-1.32-57.93-10.07-82.93-25.2-12.5-7.55-24.05-16.66-34.3-27.04-5.13-5.19-9.93-10.7-14.37-16.49l-3.27-4.39-3.13-4.49-2.99-4.6-4.15-6.61-134.47-214.4-134.47-214.39-67.73-107.89c-9.21-14.36-20.25-27.58-32.75-39.22C29.53,42.99,15.57,32.93.59,24.75-14.39,16.57-30.4,10.26-46.95,6.03-63.5,1.8-80.6-.34-97.65-.35v31.36c28.92-.02,57.85,7.37,83.21,21.26,25.4,13.83,47.25,34.18,62.84,58.54l67.55,107.6,134.47,214.39,134.47,214.39,4.17,6.65,3.52,5.41,3.69,5.29,3.85,5.17c5.24,6.82,10.89,13.31,16.93,19.42,12.08,12.23,25.68,22.96,40.4,31.85,29.43,17.82,63.33,28.13,97.69,29.69l3.22.15,3.23.05,3.23.06h3.95s15.82,0,15.82,0h1006.38l2.28.03,4.69.08c12.49.28,24.97,1.32,37.33,3.12,24.72,3.68,48.97,10.43,72.06,20.02,11.52,4.84,22.75,10.38,33.59,16.58,2.7,1.57,5.44,3.08,8.06,4.77l3.97,2.49,1.98,1.25,1.79,1.15,13.25,8.63,53.01,34.54,106.02,69.07,26.51,17.27,13.25,8.63c5.13,3.36,7.05,4.57,10.16,6.27,5.85,3.2,12.13,5.57,18.58,7.24,6.46,1.64,13.12,2.43,19.79,2.47v-31.36c-4.08-.04-8.15-.51-12.1-1.52Z"/>
  <path class="cls-2" d="M1997.5,952.09c-6.45-1.67-12.73-4.04-18.58-7.24-3.11-1.7-5.03-2.91-10.16-6.27l-13.25-8.63-26.51-17.27-106.02-69.07-53.01-34.54-13.25-8.63-1.79-1.15-1.98-1.25-3.97-2.49c-2.63-1.69-5.36-3.2-8.06-4.77-10.85-6.2-22.07-11.74-33.59-16.58-23.08-9.59-47.33-16.33-72.06-20.02-12.37-1.8-24.84-2.84-37.33-3.12l-4.69-.08-2.28-.03H564.82s-3.23-.06-3.23-.06l-3.23-.05-3.22-.15c-34.36-1.56-68.25-11.86-97.69-29.69-14.72-8.89-28.33-19.62-40.4-31.85-6.04-6.12-11.7-12.61-16.93-19.42l-3.85-5.17-3.69-5.29-3.52-5.41-4.17-6.65-134.47-214.39L115.95,218.41,48.4,110.81c-15.58-24.36-37.44-44.71-62.84-58.54-25.36-13.89-54.29-21.28-83.21-21.26v31.36c23.71-.01,47.39,6.04,68.18,17.43,20.82,11.34,38.71,28,51.48,47.97l67.37,107.32,134.47,214.39,134.47,214.39,4.2,6.68,4.05,6.22,4.24,6.09,4.43,5.96c6.03,7.85,12.54,15.32,19.49,22.36,13.9,14.08,29.56,26.43,46.51,36.66,33.87,20.51,72.89,32.38,112.44,34.17l3.71.17,3.71.06,3.71.06h3.95s15.82,0,15.82,0h1006.38l2.08.03,4.2.08c11.19.25,22.37,1.19,33.45,2.79,22.15,3.3,43.87,9.35,64.56,17.93,10.32,4.34,20.38,9.3,30.09,14.86,2.42,1.41,4.87,2.76,7.22,4.28l3.56,2.23c1.17.74,2.42,1.5,3.48,2.21l13.25,8.63,53.01,34.54,106.02,69.07,26.51,17.27,13.25,8.63c4.65,3.05,8.24,5.36,12.38,7.59,8.12,4.43,16.84,7.74,25.79,10.05,8.97,2.28,18.22,3.39,27.47,3.43v-31.36c-6.66-.04-13.33-.83-19.79-2.47Z"/>
  <path class="cls-5" d="M1989.82,982.5c-8.95-2.3-17.67-5.61-25.79-10.05-4.13-2.23-7.73-4.54-12.38-7.59l-13.25-8.63-26.51-17.27-106.02-69.07-53.01-34.54-13.25-8.63c-1.07-.71-2.31-1.47-3.48-2.21l-3.56-2.23c-2.35-1.52-4.81-2.87-7.22-4.28-9.72-5.56-19.77-10.52-30.09-14.86-20.68-8.58-42.41-14.63-64.56-17.93-11.08-1.61-22.26-2.54-33.45-2.79l-4.2-.08-2.08-.03H564.81s-3.71-.06-3.71-.06l-3.71-.06-3.71-.17c-39.55-1.79-78.57-13.66-112.44-34.17-16.94-10.23-32.6-22.58-46.51-36.66-6.95-7.04-13.47-14.51-19.49-22.36l-4.43-5.96-4.24-6.09-4.05-6.22-4.2-6.68-134.47-214.39L89.38,235.08,22.01,127.76c-12.77-19.97-30.67-36.63-51.48-47.97-20.79-11.39-44.48-17.44-68.18-17.43v31.36c18.49,0,36.94,4.71,53.15,13.59,16.23,8.84,30.17,21.82,40.13,37.39l67.18,107.03,134.47,214.39,134.47,214.4,4.22,6.71,4.57,7.04,4.8,6.89,5.01,6.74c6.82,8.88,14.19,17.33,22.05,25.3,15.73,15.94,33.45,29.9,52.61,41.47,19.16,11.58,39.76,20.76,61.18,27.27,21.42,6.52,43.65,10.35,66.02,11.38l4.19.19,4.2.07,4.2.07h3.96s15.82,0,15.82,0h1006.38l1.87.03,3.71.07c9.89.22,19.77,1.05,29.56,2.47,19.57,2.92,38.78,8.27,57.06,15.85,9.12,3.84,18.01,8.23,26.6,13.14,2.13,1.25,4.31,2.43,6.39,3.78l3.15,1.97c1.06.67,2.07,1.27,3.2,2.02l13.25,8.63,53.01,34.54,106.02,69.07,26.51,17.27,13.25,8.63c4.16,2.74,9.44,6.15,14.6,8.91,10.4,5.66,21.54,9.92,33.01,12.86,11.48,2.91,23.32,4.34,35.15,4.38v-31.36c-9.25-.04-18.5-1.15-27.47-3.43Z"/>
  <path class="cls-3" d="M1982.14,1012.9c-11.46-2.94-22.61-7.19-33.01-12.86-5.16-2.76-10.43-6.17-14.6-8.91l-13.25-8.63-26.51-17.27-106.02-69.07-53.01-34.54-13.25-8.63c-1.13-.75-2.14-1.35-3.2-2.02l-3.15-1.97c-2.07-1.35-4.25-2.53-6.39-3.78-8.59-4.91-17.47-9.3-26.6-13.14-18.28-7.58-37.48-12.92-57.06-15.85-9.79-1.42-19.67-2.24-29.56-2.47l-3.71-.07-1.87-.03H564.81s-4.2-.07-4.2-.07l-4.2-.07-4.19-.19c-22.36-1.04-44.6-4.87-66.02-11.38-21.42-6.51-42.02-15.7-61.18-27.27-19.16-11.57-36.88-25.54-52.61-41.47-7.87-7.97-15.24-16.42-22.05-25.3l-5.01-6.74-4.8-6.89-4.57-7.04-4.22-6.71-134.47-214.4L62.81,251.74-4.37,144.71c-9.96-15.57-23.9-28.55-40.13-37.39-16.22-8.88-34.66-13.59-53.15-13.59v31.36c13.27,0,26.48,3.38,38.12,9.75,11.65,6.35,21.63,15.64,28.78,26.82l67,106.74,134.47,214.4,134.47,214.39,4.24,6.75,5.1,7.85,5.35,7.69,5.59,7.52c7.61,9.91,15.83,19.35,24.61,28.24,17.56,17.79,37.33,33.37,58.71,46.28,21.38,12.92,44.37,23.17,68.28,30.44,23.9,7.27,48.73,11.55,73.68,12.71l4.68.21,4.68.08,4.68.07h3.96s15.82,0,15.82,0h1006.38l1.67.03,3.22.06c8.59.2,17.17.91,25.67,2.14,17,2.55,33.68,7.19,49.56,13.76,7.92,3.34,15.64,7.15,23.1,11.41,1.85,1.09,3.75,2.1,5.55,3.28l2.73,1.71,1.37.85.71.45.83.54,13.25,8.63,53.01,34.54,106.02,69.07,26.51,17.27,13.25,8.63c3.68,2.43,10.63,6.94,16.82,10.23,12.68,6.89,26.25,12.1,40.22,15.67,13.99,3.55,28.41,5.3,42.84,5.34v-31.36c-11.84-.04-23.68-1.47-35.15-4.38Z"/>
  <path class="cls-4" d="M1974.45,1043.3c-13.97-3.57-27.55-8.77-40.22-15.67-6.19-3.29-13.14-7.8-16.82-10.23l-13.25-8.63-26.51-17.27-106.02-69.07-53.01-34.54-13.25-8.63-.83-.54-.71-.45-1.37-.85-2.73-1.71c-1.8-1.18-3.69-2.19-5.55-3.28-7.46-4.26-15.18-8.08-23.1-11.41-15.88-6.58-32.56-11.22-49.56-13.76-8.51-1.23-17.08-1.94-25.67-2.14l-3.22-.06-1.67-.03H564.8s-4.68-.07-4.68-.07l-4.68-.08-4.68-.21c-24.95-1.16-49.77-5.43-73.68-12.71-23.91-7.26-46.9-17.52-68.28-30.44-21.38-12.91-41.16-28.5-58.71-46.28-8.78-8.89-17-18.33-24.61-28.24l-5.59-7.52-5.35-7.69-5.1-7.85-4.24-6.75-134.47-214.39L36.25,268.4-30.75,161.66c-7.14-11.18-17.12-20.47-28.78-26.82-11.64-6.37-24.85-9.75-38.12-9.75v31.36c8.06.01,16.02,2.05,23.09,5.91,7.07,3.86,13.1,9.46,17.43,16.25L9.68,285.06l134.47,214.39,134.47,214.39,4.26,6.78,5.63,8.67,5.91,8.49,6.17,8.3c8.4,10.94,17.48,21.36,27.17,31.18,19.38,19.64,41.21,36.84,64.81,51.1,23.6,14.26,48.98,25.58,75.37,33.6,26.39,8.03,53.8,12.75,81.34,14.03l5.16.23,5.17.09,5.17.07h3.96s15.82,0,15.82,0h1006.38l1.47.03,2.73.05c7.29.17,14.57.77,21.79,1.81,14.42,2.17,28.58,6.1,42.06,11.68,6.72,2.83,13.27,6.07,19.6,9.69,1.57.93,3.19,1.77,4.71,2.78l2.32,1.45,1.16.72.63.39.83.54,13.25,8.63,53.01,34.54,106.02,69.07,26.51,17.27,13.25,8.63c2.37,1.53,3.79,2.51,8.01,5.14l2.71,1.68,2.76,1.61c1.84,1.06,3.68,2.14,5.56,3.12,14.95,8.12,30.96,14.27,47.44,18.48,16.49,4.18,33.51,6.25,50.52,6.29v-31.36c-14.42-.04-28.85-1.79-42.84-5.34Z"/>
</svg>